<svg version="1.1" xmlns="http://www.w3.org/2000/svg" viewBox="0 0 829 527" width="829" height="527">
  <!-- svg-source:excalidraw -->
  
  <defs>
    <style>
      @font-face {
        font-family: "Virgil";
        src: url("https://excalidraw.com/FG_Virgil.woff2");
      }
      @font-face {
        font-family: "Cascadia";
        src: url("https://excalidraw.com/Cascadia.woff2");
      }
    </style>
  </defs>
  <rect x="0" y="0" width="829" height="527" fill="#ffffff"></rect><g transform="translate(419 177) rotate(0 124 113)"><path d="M0 0 C68.7060936830938 0, 137.4121873661876 0, 248 0 M0 0 C78.8137150026858 0, 157.6274300053716 0, 248 0 M248 0 C248 56.57181096021087, 248 113.14362192042174, 248 226 M248 0 C248 78.55198237653822, 248 157.10396475307644, 248 226 M248 226 C188.08909526839852 226, 128.17819053679705 226, 0 226 M248 226 C181.1090304635465 226, 114.218060927093 226, 0 226 M0 226 C0 163.68141454514114, 0 101.3628290902823, 0 0 M0 226 C0 180.3408669853583, 0 134.6817339707166, 0 0" stroke="#000000" stroke-width="1" fill="none"></path></g><g transform="translate(493 190.5) rotate(0 41 25)"><text x="0" y="20" font-family="Cascadia, Segoe UI Emoji" font-size="20px" fill="#000000" text-anchor="start" style="white-space: pre;" direction="ltr">Post</text><text x="0" y="45" font-family="Cascadia, Segoe UI Emoji" font-size="20px" fill="#000000" text-anchor="start" style="white-space: pre;" direction="ltr">id: "1"</text></g><g transform="translate(13 291) rotate(0 124 113)"><path d="M0 0 C76.2431907080114 0, 152.4863814160228 0, 248 0 M248 0 C248 85.49410528298468, 248 170.98821056596935, 248 226 M248 226 C185.98732269778847 226, 123.97464539557693 226, 0 226 M0 226 C0 170.2506848955527, 0 114.50136979110539, 0 0" stroke="#000000" stroke-width="1.5" fill="none" stroke-dasharray="12 8"></path></g><g transform="translate(80 301) rotate(0 41 25)"><text x="0" y="20" font-family="Cascadia, Segoe UI Emoji" font-size="20px" fill="#000000" text-anchor="start" style="white-space: pre;" direction="ltr">Project</text><text x="0" y="45" font-family="Cascadia, Segoe UI Emoji" font-size="20px" fill="#000000" text-anchor="start" style="white-space: pre;" direction="ltr">id: "b"</text></g><g transform="translate(10 10) rotate(0 124 113)"><path d="M0 0 C96.20573634132744 0, 192.41147268265487 0, 248 0 M248 0 C248 50.266757301054895, 248 100.53351460210979, 248 226 M248 226 C158.8515333510935 226, 69.70306670218704 226, 0 226 M0 226 C0 160.648357203044, 0 95.29671440608797, 0 0" stroke="#000000" stroke-width="1.5" fill="none" stroke-dasharray="12 8"></path></g><g transform="translate(81 20.5) rotate(0 41 25)"><text x="0" y="20" font-family="Cascadia, Segoe UI Emoji" font-size="20px" fill="#000000" text-anchor="start" style="white-space: pre;" direction="ltr">Project</text><text x="0" y="45" font-family="Cascadia, Segoe UI Emoji" font-size="20px" fill="#000000" text-anchor="start" style="white-space: pre;" direction="ltr">id: "a"</text></g><g transform="translate(67 193) rotate(0 70.5 12.5)"><text x="0" y="20" font-family="Cascadia, Segoe UI Emoji" font-size="20px" fill="#000000" text-anchor="start" style="white-space: pre;" direction="ltr">posts: ["1"]</text></g><g transform="translate(436 359) rotate(0 70.5 12.5)"><text x="0" y="20" font-family="Cascadia, Segoe UI Emoji" font-size="20px" fill="#000000" text-anchor="start" style="white-space: pre;" direction="ltr">project: "b"</text></g><g transform="translate(68.5 472.5) rotate(0 70.5 12.5)"><text x="0" y="20" font-family="Cascadia, Segoe UI Emoji" font-size="20px" fill="#000000" text-anchor="start" style="white-space: pre;" direction="ltr">posts: ["1"]</text></g><g><g transform="translate(218 203.31320638201186) rotate(0 130.78863074313847 5.982808562149103)"><path d="M0 0 C43.596210247712825 1.9942695207163676, 217.9810512385641 9.971347603581838, 261.57726148627694 11.965617124298205 M0 0 C43.596210247712825 1.9942695207163676, 217.9810512385641 9.971347603581838, 261.57726148627694 11.965617124298205" stroke="#000000" stroke-width="1" fill="none"></path></g><g transform="translate(218 203.31320638201186) rotate(0 130.78863074313847 5.982808562149103)"><path d="M232.94705974847568 20.927288199092374 C240.37416409828418 18.602496120059385, 247.8012684480927 16.277704041026393, 261.57726148627694 11.965617124298205 M232.94705974847568 20.927288199092374 C244.26874996619108 17.383433891984296, 255.59044018390648 13.839579584876219, 261.57726148627694 11.965617124298205" stroke="#000000" stroke-width="1" fill="none"></path></g><g transform="translate(218 203.31320638201186) rotate(0 130.78863074313847 5.982808562149103)"><path d="M233.88480341069504 0.42751651231968246 C241.06864296983045 3.420673110675358, 248.25248252896588 6.413829709031034, 261.57726148627694 11.965617124298205 M233.88480341069504 0.42751651231968246 C244.83566692783376 4.990208805793038, 255.78653044497247 9.552901099266393, 261.57726148627694 11.965617124298205" stroke="#000000" stroke-width="1" fill="none"></path></g></g><g><g transform="translate(219 486.47251045092446) rotate(0 129.51902829576284 -131.83169527219033)"><path d="M0 0 C43.173009431920946 -43.94389842406344, 215.86504715960473 -219.71949212031723, 259.0380565915257 -263.66339054438066 M0 0 C43.173009431920946 -43.94389842406344, 215.86504715960473 -219.71949212031723, 259.0380565915257 -263.66339054438066" stroke="#000000" stroke-width="1" fill="none"></path></g><g transform="translate(219 486.47251045092446) rotate(0 129.51902829576284 -131.83169527219033)"><path d="M246.6005905430733 -236.36303453399876 C249.1013840939307 -241.85230011115942, 251.6021776447881 -247.3415656883201, 259.0380565915257 -263.66339054438066 M246.6005905430733 -236.36303453399876 C251.0556913512527 -246.14202308774617, 255.5107921594321 -255.92101164149358, 259.0380565915257 -263.66339054438066" stroke="#000000" stroke-width="1" fill="none"></path></g><g transform="translate(219 486.47251045092446) rotate(0 129.51902829576284 -131.83169527219033)"><path d="M231.96207425512287 -250.7447535993 C237.40622515742265 -253.3422958826131, 242.85037605972246 -255.93983816592615, 259.0380565915257 -263.66339054438066 M231.96207425512287 -250.7447535993 C241.66069215037888 -255.3722098408201, 251.3593100456349 -259.9996660823402, 259.0380565915257 -263.66339054438066" stroke="#000000" stroke-width="1" fill="none"></path></g></g><g><g transform="translate(427 374.071529509543) rotate(0 -126.5 -28.460556744937776)"><path d="M0 0 C-42.166666666666664 -9.486852248312593, -210.83333333333334 -47.43426124156296, -253 -56.92111348987555 M0 0 C-42.166666666666664 -9.486852248312593, -210.83333333333334 -47.43426124156296, -253 -56.92111348987555" stroke="#000000" stroke-width="1" fill="none"></path></g><g transform="translate(427 374.071529509543) rotate(0 -126.5 -28.460556744937776)"><path d="M-223.24452945826195 -60.743674521403946 C-230.69285182339172 -59.786819653884066, -238.1411741885215 -58.82996478636419, -253 -56.92111348987555 M-223.24452945826195 -60.743674521403946 C-233.58679139454605 -59.41504732325412, -243.9290533308302 -58.0864201251043, -253 -56.92111348987555" stroke="#000000" stroke-width="1" fill="none"></path></g><g transform="translate(427 374.071529509543) rotate(0 -126.5 -28.460556744937776)"><path d="M-227.74889227077406 -40.722917341938995 C-234.06969268225058 -44.7776133170606, -240.39049309372706 -48.8323092921822, -253 -56.92111348987555 M-227.74889227077406 -40.722917341938995 C-236.52554965720867 -46.353007688595724, -245.3022070436433 -51.98309803525246, -253 -56.92111348987555" stroke="#000000" stroke-width="1" fill="none"></path></g></g><g transform="translate(339 31) rotate(0 240 25)"><text x="0" y="20" font-family="Cascadia, Segoe UI Emoji" font-size="20px" fill="#000000" text-anchor="start" style="white-space: pre;" direction="ltr">Project "a" is orphaned because its </text><text x="0" y="45" font-family="Cascadia, Segoe UI Emoji" font-size="20px" fill="#000000" text-anchor="start" style="white-space: pre;" direction="ltr">only child Post now points to Project "b"</text></g></svg>